<svg enable-background="new 0 0 50 50" viewBox="0 0 50 50" xmlns="http://www.w3.org/2000/svg"><path d="m37.8 4.1h-7.8c-.9-2-2.9-3.3-5-3.3-2.2 0-4.2 1.3-5 3.3h-7.8c-2.9 0-5.3 2.4-5.3 5.3v34.5c0 2.9 2.4 5.3 5.3 5.3h25.6c2.9 0 5.3-2.4 5.3-5.3v-34.5c0-2.9-2.3-5.3-5.3-5.3zm-17 2.4c.6 0 1.1-.4 1.2-1 .3-1.4 1.6-2.3 3-2.3s2.7 1 3 2.3c.1.6.6 1 1.2 1h2.4v1.1c0 1.6-1.3 2.9-2.9 2.9h-7.3c-1.6 0-2.9-1.3-2.9-2.9v-1.1zm19.9 37.4c0 1.6-1.3 2.9-2.9 2.9h-25.6c-1.6 0-2.9-1.3-2.9-2.9v-34.5c0-1.6 1.3-2.9 2.9-2.9h3.8v1.1c0 2.9 2.4 5.3 5.3 5.3h7.3c2.9 0 5.3-2.4 5.3-5.3v-1.1h3.8c1.6 0 2.9 1.3 2.9 2.9v34.5z"/><path d="m31 24-8 7.7-4-3.9c-.5-.5-1.2-.5-1.7 0s-.5 1.2 0 1.7l4.9 4.8c.5.5 1.2.5 1.7 0l8.8-8.6c.5-.5.5-1.2 0-1.7s-1.2-.5-1.7 0z"/></svg>